<svg version="1.1" xmlns="http://www.w3.org/2000/svg" xmlns:xlink="http://www.w3.org/1999/xlink" width="1036" height="436"><defs><linearGradient id="bygtWvyhxoRi" x1="0px" x2="32px" y1="0px" y2="0px" gradientUnits="userSpaceOnUse"><stop offset="0" stop-color="#807f7f"/><stop offset="1" stop-color="#807f7f"/></linearGradient><linearGradient id="RzyGONUwDlTx" x1="0px" x2="32px" y1="0px" y2="0px" gradientUnits="userSpaceOnUse"><stop offset="0" stop-color="#807f7f"/><stop offset="1" stop-color="#807f7f"/></linearGradient><linearGradient id="hPPgDxPfiGWF" x1="0px" x2="32px" y1="0px" y2="0px" gradientUnits="userSpaceOnUse"><stop offset="0" stop-color="#807f7f"/><stop offset="1" stop-color="#807f7f"/></linearGradient><linearGradient id="TTpMxffPIdwe" x1="0px" x2="32px" y1="0px" y2="0px" gradientUnits="userSpaceOnUse"><stop offset="0" stop-color="#807f7f"/><stop offset="1" stop-color="#807f7f"/></linearGradient><linearGradient id="FhcEChHRxDDn" x1="0px" x2="32px" y1="0px" y2="0px" gradientUnits="userSpaceOnUse"><stop offset="0" stop-color="#807f7f"/><stop offset="1" stop-color="#807f7f"/></linearGradient><linearGradient id="FNDDcSlMVCmr" x1="0px" x2="32px" y1="0px" y2="0px" gradientUnits="userSpaceOnUse"><stop offset="0" stop-color="#807f7f"/><stop offset="1" stop-color="#807f7f"/></linearGradient><linearGradient id="TkkEwQOowKUb" x1="0px" x2="32px" y1="0px" y2="0px" gradientUnits="userSpaceOnUse"><stop offset="0" stop-color="#807f7f"/><stop offset="1" stop-color="#807f7f"/></linearGradient></defs><g><rect fill="#000000" stroke="none" x="0" y="0" width="1036" height="436"/><g transform="scale(1,1) translate(166,82)"><path fill="none" stroke="#ff0000" paint-order="fill stroke markers" d=" M 288 144 L 312 144" stroke-linecap="round" stroke-miterlimit="10" stroke-width="3" stroke-dasharray=""/><path fill="none" stroke="#ff0000" paint-order="fill stroke markers" d=" M 288 176 L 312 176" stroke-linecap="round" stroke-miterlimit="10" stroke-width="3" stroke-dasharray=""/><path fill="none" stroke="#ff0000" paint-order="fill stroke markers" d=" M 376 160 L 400 160" stroke-linecap="round" stroke-miterlimit="10" stroke-width="3" stroke-dasharray=""/><path fill="none" stroke="#ff0000" paint-order="fill stroke markers" d=" M 336 128 L 336 140" stroke-linecap="round" stroke-miterlimit="10" stroke-width="3" stroke-dasharray=""/><path fill="none" stroke="#ff0000" paint-order="fill stroke markers" d=" M 336 192 L 336 180" stroke-linecap="round" stroke-miterlimit="10" stroke-width="3" stroke-dasharray=""/><path fill="none" stroke="#c0c0c0" paint-order="fill stroke markers" d=" M 312 128 L 312 192 L 376 160 Z" stroke-linecap="round" stroke-miterlimit="10" stroke-width="3" stroke-dasharray=""/><g><text fill="#c0c0c0" stroke="none" font-family="sans-serif" font-size="14px" font-style="normal" font-weight="normal" text-decoration="normal" x="325" y="142" text-anchor="middle" dominant-baseline="central">-</text></g><g><text fill="#c0c0c0" stroke="none" font-family="sans-serif" font-size="14px" font-style="normal" font-weight="normal" text-decoration="normal" x="325" y="176" text-anchor="middle" dominant-baseline="central">+</text></g><path fill="none" stroke="#807f7f" paint-order="fill stroke markers" d=" M 336 128 L 336 113" stroke-linecap="round" stroke-miterlimit="10" stroke-width="3" stroke-dasharray=""/><g><text fill="#ffffff" stroke="none" font-family="sans-serif" font-size="14px" font-style="normal" font-weight="normal" text-decoration="normal" x="321" y="99" text-anchor="start" dominant-baseline="central">+5V</text></g><path fill="none" stroke="#807f7f" paint-order="fill stroke markers" d=" M 336 192 L 336 208" stroke-linecap="round" stroke-miterlimit="10" stroke-width="3" stroke-dasharray=""/><path fill="none" stroke="#807f7f" paint-order="fill stroke markers" d=" M 346 208 L 326 208" stroke-linecap="round" stroke-miterlimit="10" stroke-width="3" stroke-dasharray=""/><path fill="none" stroke="#807f7f" paint-order="fill stroke markers" d=" M 342 213 L 330 213" stroke-linecap="round" stroke-miterlimit="10" stroke-width="3" stroke-dasharray=""/><path fill="none" stroke="#807f7f" paint-order="fill stroke markers" d=" M 338 218 L 334 218" stroke-linecap="round" stroke-miterlimit="10" stroke-width="3" stroke-dasharray=""/><path fill="none" stroke="#807f7f" paint-order="fill stroke markers" d=" M -48 176 L -16 176" stroke-linecap="round" stroke-miterlimit="10" stroke-width="3" stroke-dasharray=""/><path fill="none" stroke="#807f7f" paint-order="fill stroke markers" d=" M 16 176 L 48 176" stroke-linecap="round" stroke-miterlimit="10" stroke-width="3" stroke-dasharray=""/><g transform="matrix(1,0,0,1,-16,176)"><path fill="none" stroke="url(#bygtWvyhxoRi)" paint-order="fill stroke markers" d=" M 0 0 L 2 6 L 6 -6 L 10 6 L 14 -6 L 18 6 L 22 -6 L 26 6 L 30 -6 L 32 0" stroke-linecap="round" stroke-miterlimit="10" stroke-width="3" stroke-dasharray=""/></g><text fill="#ffffff" stroke="none" font-family="sans-serif" font-size="12px" font-style="normal" font-weight="normal" text-decoration="normal" x="-11" y="166" text-anchor="start" dominant-baseline="alphabetic">10k</text><path fill="none" stroke="#807f7f" paint-order="fill stroke markers" d=" M 48 176 L 48 212" stroke-linecap="round" stroke-miterlimit="10" stroke-width="3" stroke-dasharray=""/><path fill="none" stroke="#807f7f" paint-order="fill stroke markers" d=" M 60 212 L 36 212" stroke-linecap="round" stroke-miterlimit="10" stroke-width="3" stroke-dasharray=""/><path fill="none" stroke="#807f7f" paint-order="fill stroke markers" d=" M 48 256 L 48 220" stroke-linecap="round" stroke-miterlimit="10" stroke-width="3" stroke-dasharray=""/><path fill="none" stroke="#807f7f" paint-order="fill stroke markers" d=" M 60 220 L 36 220" stroke-linecap="round" stroke-miterlimit="10" stroke-width="3" stroke-dasharray=""/><text fill="#ffffff" stroke="none" font-family="sans-serif" font-size="12px" font-style="normal" font-weight="normal" text-decoration="normal" x="62" y="222" text-anchor="start" dominant-baseline="alphabetic">10nF</text><path fill="none" stroke="#807f7f" paint-order="fill stroke markers" d=" M 144 176 L 144 212" stroke-linecap="round" stroke-miterlimit="10" stroke-width="3" stroke-dasharray=""/><path fill="none" stroke="#807f7f" paint-order="fill stroke markers" d=" M 156 212 L 132 212" stroke-linecap="round" stroke-miterlimit="10" stroke-width="3" stroke-dasharray=""/><path fill="none" stroke="#807f7f" paint-order="fill stroke markers" d=" M 144 256 L 144 220" stroke-linecap="round" stroke-miterlimit="10" stroke-width="3" stroke-dasharray=""/><path fill="none" stroke="#807f7f" paint-order="fill stroke markers" d=" M 156 220 L 132 220" stroke-linecap="round" stroke-miterlimit="10" stroke-width="3" stroke-dasharray=""/><text fill="#ffffff" stroke="none" font-family="sans-serif" font-size="12px" font-style="normal" font-weight="normal" text-decoration="normal" x="158" y="222" text-anchor="start" dominant-baseline="alphabetic">10nF</text><path fill="none" stroke="#807f7f" paint-order="fill stroke markers" d=" M 48 176 L 80 176" stroke-linecap="round" stroke-miterlimit="10" stroke-width="3" stroke-dasharray=""/><path fill="none" stroke="#807f7f" paint-order="fill stroke markers" d=" M 112 176 L 144 176" stroke-linecap="round" stroke-miterlimit="10" stroke-width="3" stroke-dasharray=""/><g transform="matrix(1,0,0,1,80,176)"><path fill="none" stroke="url(#RzyGONUwDlTx)" paint-order="fill stroke markers" d=" M 0 0 L 2 6 L 6 -6 L 10 6 L 14 -6 L 18 6 L 22 -6 L 26 6 L 30 -6 L 32 0" stroke-linecap="round" stroke-miterlimit="10" stroke-width="3" stroke-dasharray=""/></g><text fill="#ffffff" stroke="none" font-family="sans-serif" font-size="12px" font-style="normal" font-weight="normal" text-decoration="normal" x="85" y="166" text-anchor="start" dominant-baseline="alphabetic">10k</text><path fill="none" stroke="#807f7f" paint-order="fill stroke markers" d=" M 144 176 L 208 176" stroke-linecap="round" stroke-miterlimit="10" stroke-width="3" stroke-dasharray=""/><text fill="#ffffff" stroke="none" font-family="sans-serif" font-size="12px" font-style="normal" font-weight="normal" text-decoration="normal" x="176" y="170" text-anchor="start" dominant-baseline="alphabetic"></text><path fill="none" stroke="#807f7f" paint-order="fill stroke markers" d=" M 256 208 L 256 208" stroke-linecap="round" stroke-miterlimit="10" stroke-width="3" stroke-dasharray=""/><path fill="none" stroke="#807f7f" paint-order="fill stroke markers" d=" M 256 240 L 256 240" stroke-linecap="round" stroke-miterlimit="10" stroke-width="3" stroke-dasharray=""/><path fill="none" stroke="#807f7f" paint-order="fill stroke markers" d=" M 256 208 L 264 210" stroke-linecap="round" stroke-miterlimit="10" stroke-width="3" stroke-dasharray=""/><path fill="none" stroke="#807f7f" paint-order="fill stroke markers" d=" M 264 210 L 256 212" stroke-linecap="round" stroke-miterlimit="10" stroke-width="3" stroke-dasharray=""/><path fill="none" stroke="#807f7f" paint-order="fill stroke markers" d=" M 256 212 L 248 214" stroke-linecap="round" stroke-miterlimit="10" stroke-width="3" stroke-dasharray=""/><path fill="none" stroke="#807f7f" paint-order="fill stroke markers" d=" M 248 214 L 256 216" stroke-linecap="round" stroke-miterlimit="10" stroke-width="3" stroke-dasharray=""/><path fill="none" stroke="#807f7f" paint-order="fill stroke markers" d=" M 256 216 L 264 218" stroke-linecap="round" stroke-miterlimit="10" stroke-width="3" stroke-dasharray=""/><path fill="none" stroke="#807f7f" paint-order="fill stroke markers" d=" M 264 218 L 256 220" stroke-linecap="round" stroke-miterlimit="10" stroke-width="3" stroke-dasharray=""/><path fill="none" stroke="#807f7f" paint-order="fill stroke markers" d=" M 256 220 L 248 222" stroke-linecap="round" stroke-miterlimit="10" stroke-width="3" stroke-dasharray=""/><path fill="none" stroke="#807f7f" paint-order="fill stroke markers" d=" M 248 222 L 256 224" stroke-linecap="round" stroke-miterlimit="10" stroke-width="3" stroke-dasharray=""/><path fill="none" stroke="#807f7f" paint-order="fill stroke markers" d=" M 256 224 L 264 226" stroke-linecap="round" stroke-miterlimit="10" stroke-width="3" stroke-dasharray=""/><path fill="none" stroke="#807f7f" paint-order="fill stroke markers" d=" M 264 226 L 256 228" stroke-linecap="round" stroke-miterlimit="10" stroke-width="3" stroke-dasharray=""/><path fill="none" stroke="#807f7f" paint-order="fill stroke markers" d=" M 256 228 L 248 230" stroke-linecap="round" stroke-miterlimit="10" stroke-width="3" stroke-dasharray=""/><path fill="none" stroke="#807f7f" paint-order="fill stroke markers" d=" M 248 230 L 256 232" stroke-linecap="round" stroke-miterlimit="10" stroke-width="3" stroke-dasharray=""/><path fill="none" stroke="#807f7f" paint-order="fill stroke markers" d=" M 256 232 L 264 234" stroke-linecap="round" stroke-miterlimit="10" stroke-width="3" stroke-dasharray=""/><path fill="none" stroke="#807f7f" paint-order="fill stroke markers" d=" M 264 234 L 256 236" stroke-linecap="round" stroke-miterlimit="10" stroke-width="3" stroke-dasharray=""/><path fill="none" stroke="#807f7f" paint-order="fill stroke markers" d=" M 256 236 L 248 238" stroke-linecap="round" stroke-miterlimit="10" stroke-width="3" stroke-dasharray=""/><path fill="none" stroke="#807f7f" paint-order="fill stroke markers" d=" M 248 238 L 256 240" stroke-linecap="round" stroke-miterlimit="10" stroke-width="3" stroke-dasharray=""/><path fill="none" stroke="#807f7f" paint-order="fill stroke markers" d=" M 224 224 L 224 224" stroke-linecap="round" stroke-miterlimit="10" stroke-width="3" stroke-dasharray=""/><path fill="none" stroke="#807f7f" paint-order="fill stroke markers" d=" M 224 224 L 248 224" stroke-linecap="round" stroke-miterlimit="10" stroke-width="3" stroke-dasharray=""/><path fill="none" stroke="#807f7f" paint-order="fill stroke markers" d=" M 240 216 L 248 224" stroke-linecap="round" stroke-miterlimit="10" stroke-width="3" stroke-dasharray=""/><path fill="none" stroke="#807f7f" paint-order="fill stroke markers" d=" M 240 232 L 248 224" stroke-linecap="round" stroke-miterlimit="10" stroke-width="3" stroke-dasharray=""/><path fill="none" stroke="#807f7f" paint-order="fill stroke markers" d=" M 256 240 L 256 256" stroke-linecap="round" stroke-miterlimit="10" stroke-width="3" stroke-dasharray=""/><text fill="#ffffff" stroke="none" font-family="sans-serif" font-size="12px" font-style="normal" font-weight="normal" text-decoration="normal" x="262" y="254" text-anchor="start" dominant-baseline="alphabetic"></text><path fill="none" stroke="#807f7f" paint-order="fill stroke markers" d=" M 256 256 L 256 272" stroke-linecap="round" stroke-miterlimit="10" stroke-width="3" stroke-dasharray=""/><path fill="none" stroke="#807f7f" paint-order="fill stroke markers" d=" M 266 272 L 246 272" stroke-linecap="round" stroke-miterlimit="10" stroke-width="3" stroke-dasharray=""/><path fill="none" stroke="#807f7f" paint-order="fill stroke markers" d=" M 262 277 L 250 277" stroke-linecap="round" stroke-miterlimit="10" stroke-width="3" stroke-dasharray=""/><path fill="none" stroke="#807f7f" paint-order="fill stroke markers" d=" M 258 282 L 254 282" stroke-linecap="round" stroke-miterlimit="10" stroke-width="3" stroke-dasharray=""/><path fill="none" stroke="#807f7f" paint-order="fill stroke markers" d=" M 48 256 L 144 256" stroke-linecap="round" stroke-miterlimit="10" stroke-width="3" stroke-dasharray=""/><text fill="#ffffff" stroke="none" font-family="sans-serif" font-size="12px" font-style="normal" font-weight="normal" text-decoration="normal" x="96" y="250" text-anchor="start" dominant-baseline="alphabetic"></text><path fill="none" stroke="#807f7f" paint-order="fill stroke markers" d=" M 144 256 L 256 256" stroke-linecap="round" stroke-miterlimit="10" stroke-width="3" stroke-dasharray=""/><text fill="#ffffff" stroke="none" font-family="sans-serif" font-size="12px" font-style="normal" font-weight="normal" text-decoration="normal" x="200" y="250" text-anchor="start" dominant-baseline="alphabetic"></text><path fill="none" stroke="#807f7f" paint-order="fill stroke markers" d=" M 208 176 L 208 224" stroke-linecap="round" stroke-miterlimit="10" stroke-width="3" stroke-dasharray=""/><text fill="#ffffff" stroke="none" font-family="sans-serif" font-size="12px" font-style="normal" font-weight="normal" text-decoration="normal" x="214" y="206" text-anchor="start" dominant-baseline="alphabetic"></text><path fill="none" stroke="#807f7f" paint-order="fill stroke markers" d=" M 208 176 L 288 176" stroke-linecap="round" stroke-miterlimit="10" stroke-width="3" stroke-dasharray=""/><text fill="#ffffff" stroke="none" font-family="sans-serif" font-size="12px" font-style="normal" font-weight="normal" text-decoration="normal" x="248" y="170" text-anchor="start" dominant-baseline="alphabetic"></text><path fill="none" stroke="#807f7f" paint-order="fill stroke markers" d=" M 208 224 L 224 224" stroke-linecap="round" stroke-miterlimit="10" stroke-width="3" stroke-dasharray=""/><text fill="#ffffff" stroke="none" font-family="sans-serif" font-size="12px" font-style="normal" font-weight="normal" text-decoration="normal" x="216" y="218" text-anchor="start" dominant-baseline="alphabetic"></text><path fill="none" stroke="#807f7f" paint-order="fill stroke markers" d=" M 448 160 L 448 184" stroke-linecap="round" stroke-miterlimit="10" stroke-width="3" stroke-dasharray=""/><path fill="none" stroke="#807f7f" paint-order="fill stroke markers" d=" M 448 216 L 448 240" stroke-linecap="round" stroke-miterlimit="10" stroke-width="3" stroke-dasharray=""/><g transform="matrix(0,1,-1,0,448,184)"><path fill="none" stroke="url(#hPPgDxPfiGWF)" paint-order="fill stroke markers" d=" M 0 0 L 2 6 L 6 -6 L 10 6 L 14 -6 L 18 6 L 22 -6 L 26 6 L 30 -6 L 32 0" stroke-linecap="round" stroke-miterlimit="10" stroke-width="3" stroke-dasharray=""/></g><text fill="#ffffff" stroke="none" font-family="sans-serif" font-size="12px" font-style="normal" font-weight="normal" text-decoration="normal" x="458" y="206" text-anchor="start" dominant-baseline="alphabetic">10k</text><path fill="none" stroke="#807f7f" paint-order="fill stroke markers" d=" M 448 240 L 448 272" stroke-linecap="round" stroke-miterlimit="10" stroke-width="3" stroke-dasharray=""/><path fill="none" stroke="#807f7f" paint-order="fill stroke markers" d=" M 458 272 L 438 272" stroke-linecap="round" stroke-miterlimit="10" stroke-width="3" stroke-dasharray=""/><path fill="none" stroke="#807f7f" paint-order="fill stroke markers" d=" M 454 277 L 442 277" stroke-linecap="round" stroke-miterlimit="10" stroke-width="3" stroke-dasharray=""/><path fill="none" stroke="#807f7f" paint-order="fill stroke markers" d=" M 450 282 L 446 282" stroke-linecap="round" stroke-miterlimit="10" stroke-width="3" stroke-dasharray=""/><path fill="none" stroke="#807f7f" paint-order="fill stroke markers" d=" M 400 160 L 448 160" stroke-linecap="round" stroke-miterlimit="10" stroke-width="3" stroke-dasharray=""/><text fill="#ffffff" stroke="none" font-family="sans-serif" font-size="12px" font-style="normal" font-weight="normal" text-decoration="normal" x="424" y="154" text-anchor="start" dominant-baseline="alphabetic"></text><path fill="none" stroke="#807f7f" paint-order="fill stroke markers" d=" M 496 160 L 496 180" stroke-linecap="round" stroke-miterlimit="10" stroke-width="3" stroke-dasharray=""/><path fill="none" stroke="#807f7f" paint-order="fill stroke markers" d=" M 508 180 L 484 180" stroke-linecap="round" stroke-miterlimit="10" stroke-width="3" stroke-dasharray=""/><path fill="none" stroke="#807f7f" paint-order="fill stroke markers" d=" M 496 208 L 496 188" stroke-linecap="round" stroke-miterlimit="10" stroke-width="3" stroke-dasharray=""/><path fill="none" stroke="#807f7f" paint-order="fill stroke markers" d=" M 508 188 L 484 188" stroke-linecap="round" stroke-miterlimit="10" stroke-width="3" stroke-dasharray=""/><text fill="#ffffff" stroke="none" font-family="sans-serif" font-size="12px" font-style="normal" font-weight="normal" text-decoration="normal" x="510" y="190" text-anchor="start" dominant-baseline="alphabetic">10nF</text><path fill="none" stroke="#807f7f" paint-order="fill stroke markers" d=" M 496 160 L 520 160" stroke-linecap="round" stroke-miterlimit="10" stroke-width="3" stroke-dasharray=""/><path fill="none" stroke="#807f7f" paint-order="fill stroke markers" d=" M 552 160 L 576 160" stroke-linecap="round" stroke-miterlimit="10" stroke-width="3" stroke-dasharray=""/><g transform="matrix(1,0,0,1,520,160)"><path fill="none" stroke="url(#TTpMxffPIdwe)" paint-order="fill stroke markers" d=" M 0 0 L 2 6 L 6 -6 L 10 6 L 14 -6 L 18 6 L 22 -6 L 26 6 L 30 -6 L 32 0" stroke-linecap="round" stroke-miterlimit="10" stroke-width="3" stroke-dasharray=""/></g><text fill="#ffffff" stroke="none" font-family="sans-serif" font-size="12px" font-style="normal" font-weight="normal" text-decoration="normal" x="525" y="150" text-anchor="start" dominant-baseline="alphabetic">100</text><path fill="none" stroke="#807f7f" paint-order="fill stroke markers" d=" M 640 176 L 618 176" stroke-linecap="round" stroke-miterlimit="10" stroke-width="3" stroke-dasharray=""/><path fill="none" stroke="#807f7f" paint-order="fill stroke markers" d=" M 640 144 L 618 144" stroke-linecap="round" stroke-miterlimit="10" stroke-width="3" stroke-dasharray=""/><path fill="none" stroke="#807f7f" paint-order="fill stroke markers" d=" M 618 176 L 618 171" stroke-linecap="round" stroke-miterlimit="10" stroke-width="3" stroke-dasharray=""/><path fill="none" stroke="#807f7f" paint-order="fill stroke markers" d=" M 618 165 L 618 160" stroke-linecap="round" stroke-miterlimit="10" stroke-width="3" stroke-dasharray=""/><path fill="none" stroke="#807f7f" paint-order="fill stroke markers" d=" M 618 160 L 618 155" stroke-linecap="round" stroke-miterlimit="10" stroke-width="3" stroke-dasharray=""/><path fill="none" stroke="#807f7f" paint-order="fill stroke markers" d=" M 618 149 L 618 144" stroke-linecap="round" stroke-miterlimit="10" stroke-width="3" stroke-dasharray=""/><path fill="none" stroke="#807f7f" paint-order="fill stroke markers" d=" M 618 176 L 618 181" stroke-linecap="round" stroke-miterlimit="10" stroke-width="3" stroke-dasharray=""/><path fill="none" stroke="#807f7f" paint-order="fill stroke markers" d=" M 618 144 L 618 139" stroke-linecap="round" stroke-miterlimit="10" stroke-width="3" stroke-dasharray=""/><path fill="none" stroke="#807f7f" paint-order="fill stroke markers" d=" M 640 176 L 640 160" stroke-linecap="round" stroke-miterlimit="10" stroke-width="3" stroke-dasharray=""/><path fill="none" stroke="#807f7f" paint-order="fill stroke markers" d=" M 640 160 L 618 160" stroke-linecap="round" stroke-miterlimit="10" stroke-width="3" stroke-dasharray=""/><path fill="#807f7f" stroke="none" paint-order="stroke fill markers" d=" M 618 160 L 630 165 L 630 155 Z"/><path fill="none" stroke="#807f7f" paint-order="fill stroke markers" d=" M 576 160 L 612 160" stroke-linecap="round" stroke-miterlimit="10" stroke-width="3" stroke-dasharray=""/><path fill="none" stroke="#807f7f" paint-order="fill stroke markers" d=" M 612 152 L 612 168" stroke-linecap="round" stroke-miterlimit="10" stroke-width="3" stroke-dasharray=""/><path fill="none" stroke="#807f7f" paint-order="fill stroke markers" d=" M 640 208 L 640 216" stroke-linecap="round" stroke-miterlimit="10" stroke-width="3" stroke-dasharray=""/><path fill="none" stroke="#807f7f" paint-order="fill stroke markers" d=" M 640 248 L 640 256" stroke-linecap="round" stroke-miterlimit="10" stroke-width="3" stroke-dasharray=""/><g transform="matrix(0,1,-1,0,640,216)"><path fill="none" stroke="url(#FhcEChHRxDDn)" paint-order="fill stroke markers" d=" M 0 0 L 2 6 L 6 -6 L 10 6 L 14 -6 L 18 6 L 22 -6 L 26 6 L 30 -6 L 32 0" stroke-linecap="round" stroke-miterlimit="10" stroke-width="3" stroke-dasharray=""/></g><text fill="#ffffff" stroke="none" font-family="sans-serif" font-size="12px" font-style="normal" font-weight="normal" text-decoration="normal" x="650" y="238" text-anchor="start" dominant-baseline="alphabetic">100m</text><path fill="none" stroke="#807f7f" paint-order="fill stroke markers" d=" M 640 256 L 640 272" stroke-linecap="round" stroke-miterlimit="10" stroke-width="3" stroke-dasharray=""/><path fill="none" stroke="#807f7f" paint-order="fill stroke markers" d=" M 650 272 L 630 272" stroke-linecap="round" stroke-miterlimit="10" stroke-width="3" stroke-dasharray=""/><path fill="none" stroke="#807f7f" paint-order="fill stroke markers" d=" M 646 277 L 634 277" stroke-linecap="round" stroke-miterlimit="10" stroke-width="3" stroke-dasharray=""/><path fill="none" stroke="#807f7f" paint-order="fill stroke markers" d=" M 642 282 L 638 282" stroke-linecap="round" stroke-miterlimit="10" stroke-width="3" stroke-dasharray=""/><path fill="none" stroke="#807f7f" paint-order="fill stroke markers" d=" M 640 176 L 640 208" stroke-linecap="round" stroke-miterlimit="10" stroke-width="3" stroke-dasharray=""/><text fill="#ffffff" stroke="none" font-family="sans-serif" font-size="12px" font-style="normal" font-weight="normal" text-decoration="normal" x="646" y="198" text-anchor="start" dominant-baseline="alphabetic"></text><path fill="none" stroke="#807f7f" paint-order="fill stroke markers" d=" M 640 208 L 584 208" stroke-linecap="round" stroke-miterlimit="10" stroke-width="3" stroke-dasharray=""/><path fill="none" stroke="#807f7f" paint-order="fill stroke markers" d=" M 552 208 L 496 208" stroke-linecap="round" stroke-miterlimit="10" stroke-width="3" stroke-dasharray=""/><g transform="matrix(-1,0,0,-1,584,208)"><path fill="none" stroke="url(#FNDDcSlMVCmr)" paint-order="fill stroke markers" d=" M 0 0 L 2 6 L 6 -6 L 10 6 L 14 -6 L 18 6 L 22 -6 L 26 6 L 30 -6 L 32 0" stroke-linecap="round" stroke-miterlimit="10" stroke-width="3" stroke-dasharray=""/></g><text fill="#ffffff" stroke="none" font-family="sans-serif" font-size="12px" font-style="normal" font-weight="normal" text-decoration="normal" x="557" y="198" text-anchor="start" dominant-baseline="alphabetic">10k</text><path fill="none" stroke="#807f7f" paint-order="fill stroke markers" d=" M 448 160 L 496 160" stroke-linecap="round" stroke-miterlimit="10" stroke-width="3" stroke-dasharray=""/><text fill="#ffffff" stroke="none" font-family="sans-serif" font-size="12px" font-style="normal" font-weight="normal" text-decoration="normal" x="472" y="154" text-anchor="start" dominant-baseline="alphabetic"></text><path fill="none" stroke="#807f7f" paint-order="fill stroke markers" d=" M 496 208 L 496 304" stroke-linecap="round" stroke-miterlimit="10" stroke-width="3" stroke-dasharray=""/><text fill="#ffffff" stroke="none" font-family="sans-serif" font-size="12px" font-style="normal" font-weight="normal" text-decoration="normal" x="502" y="262" text-anchor="start" dominant-baseline="alphabetic"></text><path fill="none" stroke="#807f7f" paint-order="fill stroke markers" d=" M 496 304 L 800 304" stroke-linecap="round" stroke-miterlimit="10" stroke-width="3" stroke-dasharray=""/><text fill="#ffffff" stroke="none" font-family="sans-serif" font-size="12px" font-style="normal" font-weight="normal" text-decoration="normal" x="648" y="298" text-anchor="start" dominant-baseline="alphabetic"></text><path fill="none" stroke="#807f7f" paint-order="fill stroke markers" d=" M 288 144 L 256 144" stroke-linecap="round" stroke-miterlimit="10" stroke-width="3" stroke-dasharray=""/><text fill="#ffffff" stroke="none" font-family="sans-serif" font-size="12px" font-style="normal" font-weight="normal" text-decoration="normal" x="272" y="138" text-anchor="start" dominant-baseline="alphabetic"></text><path fill="none" stroke="#807f7f" paint-order="fill stroke markers" d=" M 256 144 L 256 -32" stroke-linecap="round" stroke-miterlimit="10" stroke-width="3" stroke-dasharray=""/><text fill="#ffffff" stroke="none" font-family="sans-serif" font-size="12px" font-style="normal" font-weight="normal" text-decoration="normal" x="262" y="62" text-anchor="start" dominant-baseline="alphabetic"></text><path fill="none" stroke="#807f7f" paint-order="fill stroke markers" d=" M 256 -32 L 800 -32" stroke-linecap="round" stroke-miterlimit="10" stroke-width="3" stroke-dasharray=""/><text fill="#ffffff" stroke="none" font-family="sans-serif" font-size="12px" font-style="normal" font-weight="normal" text-decoration="normal" x="528" y="-38" text-anchor="start" dominant-baseline="alphabetic"></text><path fill="none" stroke="#807f7f" paint-order="fill stroke markers" d=" M 800 -32 L 800 304" stroke-linecap="round" stroke-miterlimit="10" stroke-width="3" stroke-dasharray=""/><text fill="#ffffff" stroke="none" font-family="sans-serif" font-size="12px" font-style="normal" font-weight="normal" text-decoration="normal" x="806" y="142" text-anchor="start" dominant-baseline="alphabetic"></text><path fill="none" stroke="#807f7f" paint-order="fill stroke markers" d=" M 640 96 L 640 104" stroke-linecap="round" stroke-miterlimit="10" stroke-width="3" stroke-dasharray=""/><path fill="none" stroke="#807f7f" paint-order="fill stroke markers" d=" M 640 136 L 640 144" stroke-linecap="round" stroke-miterlimit="10" stroke-width="3" stroke-dasharray=""/><g transform="matrix(0,1,-1,0,640,104)"><path fill="none" stroke="url(#TkkEwQOowKUb)" paint-order="fill stroke markers" d=" M 0 0 L 2 6 L 6 -6 L 10 6 L 14 -6 L 18 6 L 22 -6 L 26 6 L 30 -6 L 32 0" stroke-linecap="round" stroke-miterlimit="10" stroke-width="3" stroke-dasharray=""/></g><text fill="#ffffff" stroke="none" font-family="sans-serif" font-size="12px" font-style="normal" font-weight="normal" text-decoration="normal" x="650" y="126" text-anchor="start" dominant-baseline="alphabetic">10m</text><path fill="none" stroke="#807f7f" paint-order="fill stroke markers" d=" M 640 16 L 640 0" stroke-linecap="round" stroke-miterlimit="10" stroke-width="3" stroke-dasharray=""/><path fill="none" stroke="#807f7f" paint-order="fill stroke markers" d=" M 630 0 L 650 0" stroke-linecap="round" stroke-miterlimit="10" stroke-width="3" stroke-dasharray=""/><path fill="none" stroke="#807f7f" paint-order="fill stroke markers" d=" M 634 -5 L 646 -5" stroke-linecap="round" stroke-miterlimit="10" stroke-width="3" stroke-dasharray=""/><path fill="none" stroke="#807f7f" paint-order="fill stroke markers" d=" M 638 -10 L 642 -10" stroke-linecap="round" stroke-miterlimit="10" stroke-width="3" stroke-dasharray=""/><path fill="none" stroke="#807f7f" paint-order="fill stroke markers" d=" M -48 176 L -79 176" stroke-linecap="round" stroke-miterlimit="10" stroke-width="3" stroke-dasharray=""/><path fill="none" stroke="#808080" paint-order="fill stroke markers" d=" M -79.34 176 A 16.66 16.66 0 1 1 -79.3400083299993 175.98334000277666" stroke-linecap="round" stroke-miterlimit="10" stroke-width="3" stroke-dasharray=""/><path fill="none" stroke="#808080" paint-order="fill stroke markers" d=" M -104 168 L -104 176" stroke-linecap="round" stroke-miterlimit="10" stroke-width="3" stroke-dasharray=""/><path fill="none" stroke="#808080" paint-order="fill stroke markers" d=" M -104 168 L -96 168" stroke-linecap="round" stroke-miterlimit="10" stroke-width="3" stroke-dasharray=""/><path fill="none" stroke="#808080" paint-order="fill stroke markers" d=" M -96 168 L -96 184" stroke-linecap="round" stroke-miterlimit="10" stroke-width="3" stroke-dasharray=""/><path fill="none" stroke="#808080" paint-order="fill stroke markers" d=" M -88 184 L -96 184" stroke-linecap="round" stroke-miterlimit="10" stroke-width="3" stroke-dasharray=""/><path fill="none" stroke="#808080" paint-order="fill stroke markers" d=" M -88 176 L -88 184" stroke-linecap="round" stroke-miterlimit="10" stroke-width="3" stroke-dasharray=""/><text fill="#ffffff" stroke="none" font-family="sans-serif" font-size="12px" font-style="normal" font-weight="normal" text-decoration="normal" x="-110" y="157" text-anchor="start" dominant-baseline="alphabetic">8kHz</text><path fill="none" stroke="#807f7f" paint-order="fill stroke markers" d=" M 640 16 L 640 28" stroke-linecap="round" stroke-miterlimit="10" stroke-width="3" stroke-dasharray=""/><path fill="none" stroke="#807f7f" paint-order="fill stroke markers" d=" M 640 36 L 640 48" stroke-linecap="round" stroke-miterlimit="10" stroke-width="3" stroke-dasharray=""/><path fill="none" stroke="#807f7f" paint-order="fill stroke markers" d=" M 650 28 L 630 28" stroke-linecap="round" stroke-miterlimit="10" stroke-width="3" stroke-dasharray=""/><path fill="none" stroke="#807f7f" paint-order="fill stroke markers" d=" M 656 36 L 624 36" stroke-linecap="round" stroke-miterlimit="10" stroke-width="3" stroke-dasharray=""/><path fill="none" stroke="#c0c0c0" paint-order="fill stroke markers" d=" M 651.76 72 A 11.76 11.76 0 1 1 651.7599941200004 71.98824000196" stroke-linecap="round" stroke-miterlimit="10" stroke-width="3" stroke-dasharray=""/><g><text fill="#c0c0c0" stroke="none" font-family="sans-serif" font-size="12px" font-style="normal" font-weight="normal" text-decoration="normal" x="640" y="72" text-anchor="middle" dominant-baseline="central">A</text></g><path fill="none" stroke="#807f7f" paint-order="fill stroke markers" d=" M 640 48 L 640 60" stroke-linecap="round" stroke-miterlimit="10" stroke-width="3" stroke-dasharray=""/><path fill="none" stroke="#807f7f" paint-order="fill stroke markers" d=" M 640 84 L 640 96" stroke-linecap="round" stroke-miterlimit="10" stroke-width="3" stroke-dasharray=""/><text fill="#ffffff" stroke="none" font-family="sans-serif" font-size="12px" font-style="normal" font-weight="normal" text-decoration="normal" x="625" y="60" text-anchor="start" dominant-baseline="alphabetic">+</text><text fill="#ffffff" stroke="none" font-family="sans-serif" font-size="12px" font-style="normal" font-weight="normal" text-decoration="normal" x="654" y="78" text-anchor="start" dominant-baseline="alphabetic">0 A</text><g><path fill="none" stroke="#807f7f" paint-order="fill stroke markers" d=" M 704 96 L 704 108" stroke-linecap="round" stroke-miterlimit="10" stroke-width="3" stroke-dasharray=""/><path fill="none" stroke="#807f7f" paint-order="fill stroke markers" d=" M 704 132 L 704 144" stroke-linecap="round" stroke-miterlimit="10" stroke-width="3" stroke-dasharray=""/><text fill="#ffffff" stroke="none" font-family="sans-serif" font-size="12px" font-style="normal" font-weight="normal" text-decoration="normal" x="721" y="126" text-anchor="start" dominant-baseline="alphabetic">0 V</text><text fill="#ffffff" stroke="none" font-family="sans-serif" font-size="12px" font-style="normal" font-weight="normal" text-decoration="normal" x="689" y="108" text-anchor="start" dominant-baseline="alphabetic">+</text><path fill="none" stroke="#c0c0c0" paint-order="fill stroke markers" d=" M 715.76 120 A 11.76 11.76 0 1 1 715.7599941200004 119.98824000196" stroke-linecap="round" stroke-miterlimit="10" stroke-width="3" stroke-dasharray=""/><g><text fill="#c0c0c0" stroke="none" font-family="sans-serif" font-size="12px" font-style="normal" font-weight="normal" text-decoration="normal" x="704" y="120" text-anchor="middle" dominant-baseline="central">V</text></g></g><path fill="none" stroke="#807f7f" paint-order="fill stroke markers" d=" M 704 96 L 640 96" stroke-linecap="round" stroke-miterlimit="10" stroke-width="3" stroke-dasharray=""/><text fill="#ffffff" stroke="none" font-family="sans-serif" font-size="12px" font-style="normal" font-weight="normal" text-decoration="normal" x="672" y="90" text-anchor="start" dominant-baseline="alphabetic"></text><path fill="none" stroke="#807f7f" paint-order="fill stroke markers" d=" M 704 144 L 640 144" stroke-linecap="round" stroke-miterlimit="10" stroke-width="3" stroke-dasharray=""/><text fill="#ffffff" stroke="none" font-family="sans-serif" font-size="12px" font-style="normal" font-weight="normal" text-decoration="normal" x="672" y="138" text-anchor="start" dominant-baseline="alphabetic"></text><path fill="#ffffff" stroke="none" paint-order="stroke fill markers" d=" M 51 176 A 3 3 0 1 1 50.99999999995775 175.99998407846124 Z"/><path fill="#ffffff" stroke="none" paint-order="stroke fill markers" d=" M 147 176 A 3 3 0 1 1 146.99999999995774 175.99998407846124 Z"/><path fill="#ffffff" stroke="none" paint-order="stroke fill markers" d=" M 147 256 A 3 3 0 1 1 146.99999999995774 255.99998407846124 Z"/><path fill="#ffffff" stroke="none" paint-order="stroke fill markers" d=" M 211 176 A 3 3 0 1 1 210.99999999995774 175.99998407846124 Z"/><path fill="#ffffff" stroke="none" paint-order="stroke fill markers" d=" M 259 208 A 3 3 0 1 1 258.99999999995777 207.99998407846124 Z"/><path fill="#ffffff" stroke="none" paint-order="stroke fill markers" d=" M 259 256 A 3 3 0 1 1 258.99999999995777 255.99998407846124 Z"/><path fill="#ffffff" stroke="none" paint-order="stroke fill markers" d=" M 451 160 A 3 3 0 1 1 450.99999999995777 159.99998407846124 Z"/><path fill="#ffffff" stroke="none" paint-order="stroke fill markers" d=" M 499 160 A 3 3 0 1 1 498.99999999995777 159.99998407846124 Z"/><path fill="#ffffff" stroke="none" paint-order="stroke fill markers" d=" M 499 208 A 3 3 0 1 1 498.99999999995777 207.99998407846124 Z"/><path fill="#ffffff" stroke="none" paint-order="stroke fill markers" d=" M 643 144 A 3 3 0 1 1 642.9999999999577 143.99998407846124 Z"/><path fill="#ffffff" stroke="none" paint-order="stroke fill markers" d=" M 643 208 A 3 3 0 1 1 642.9999999999577 207.99998407846124 Z"/><path fill="#ffffff" stroke="none" paint-order="stroke fill markers" d=" M 643 96 A 3 3 0 1 1 642.9999999999577 95.99998407846124 Z"/></g></g></svg>